solid OpenSCAD_Model
  facet normal -0 0 -1
    outer loop
      vertex -14.6722 3.11867 0
      vertex -13.7032 6.10105 0
      vertex -15 0 0
    endloop
  endfacet
  facet normal 0 0 -1
    outer loop
      vertex -15 0 0
      vertex -13.7032 6.10105 0
      vertex -12.1353 8.81678 0
    endloop
  endfacet
  facet normal 0 0 -1
    outer loop
      vertex -15 0 0
      vertex -12.1353 8.81678 0
      vertex -10.037 11.1472 0
    endloop
  endfacet
  facet normal 0 0 -1
    outer loop
      vertex -15 0 0
      vertex -10.037 11.1472 0
      vertex -7.5 12.9904 0
    endloop
  endfacet
  facet normal 0 0 -1
    outer loop
      vertex -15 0 0
      vertex -7.5 12.9904 0
      vertex -4.63525 14.2658 0
    endloop
  endfacet
  facet normal 0 0 -1
    outer loop
      vertex -15 0 0
      vertex -4.63525 14.2658 0
      vertex -1.56793 14.9178 0
    endloop
  endfacet
  facet normal 0 0 -1
    outer loop
      vertex -15 0 0
      vertex -1.56793 14.9178 0
      vertex 1.56793 14.9178 0
    endloop
  endfacet
  facet normal 0 0 -1
    outer loop
      vertex -15 0 0
      vertex 1.56793 14.9178 0
      vertex 4.63525 14.2658 0
    endloop
  endfacet
  facet normal 0 0 -1
    outer loop
      vertex -15 0 0
      vertex 4.63525 14.2658 0
      vertex 7.5 12.9904 0
    endloop
  endfacet
  facet normal 0 0 -1
    outer loop
      vertex -15 0 0
      vertex 7.5 12.9904 0
      vertex 10.037 11.1472 0
    endloop
  endfacet
  facet normal 0 0 -1
    outer loop
      vertex -15 0 0
      vertex 10.037 11.1472 0
      vertex 12.1353 8.81678 0
    endloop
  endfacet
  facet normal 0 0 -1
    outer loop
      vertex -15 0 0
      vertex 12.1353 8.81678 0
      vertex 13.7032 6.10105 0
    endloop
  endfacet
  facet normal 0 0 -1
    outer loop
      vertex -15 0 0
      vertex 13.7032 6.10105 0
      vertex 14.6722 3.11867 0
    endloop
  endfacet
  facet normal -0 0 -1
    outer loop
      vertex -15 0 0
      vertex 14.6722 3.11867 0
      vertex 15 0 0
    endloop
  endfacet
  facet normal 0 0 -1
    outer loop
      vertex -15 0 0
      vertex 15 0 0
      vertex 14.6722 -3.11867 0
    endloop
  endfacet
  facet normal 0 0 -1
    outer loop
      vertex -15 0 0
      vertex 14.6722 -3.11867 0
      vertex 13.7032 -6.10105 0
    endloop
  endfacet
  facet normal 0 0 -1
    outer loop
      vertex -15 0 0
      vertex 13.7032 -6.10105 0
      vertex 12.1353 -8.81678 0
    endloop
  endfacet
  facet normal 0 0 -1
    outer loop
      vertex -15 0 0
      vertex 12.1353 -8.81678 0
      vertex 10.037 -11.1472 0
    endloop
  endfacet
  facet normal 0 0 -1
    outer loop
      vertex -15 0 0
      vertex 10.037 -11.1472 0
      vertex 7.5 -12.9904 0
    endloop
  endfacet
  facet normal 0 0 -1
    outer loop
      vertex -15 0 0
      vertex 7.5 -12.9904 0
      vertex 4.63525 -14.2658 0
    endloop
  endfacet
  facet normal 0 0 -1
    outer loop
      vertex -15 0 0
      vertex 4.63525 -14.2658 0
      vertex 1.56793 -14.9178 0
    endloop
  endfacet
  facet normal 0 0 -1
    outer loop
      vertex -15 0 0
      vertex 1.56793 -14.9178 0
      vertex -1.56793 -14.9178 0
    endloop
  endfacet
  facet normal 0 0 -1
    outer loop
      vertex -15 0 0
      vertex -1.56793 -14.9178 0
      vertex -4.63525 -14.2658 0
    endloop
  endfacet
  facet normal 0 0 -1
    outer loop
      vertex -15 0 0
      vertex -4.63525 -14.2658 0
      vertex -7.5 -12.9904 0
    endloop
  endfacet
  facet normal 0 0 -1
    outer loop
      vertex -15 0 0
      vertex -7.5 -12.9904 0
      vertex -10.037 -11.1472 0
    endloop
  endfacet
  facet normal 0 0 -1
    outer loop
      vertex -15 0 0
      vertex -10.037 -11.1472 0
      vertex -12.1353 -8.81678 0
    endloop
  endfacet
  facet normal 0 0 -1
    outer loop
      vertex -15 0 0
      vertex -12.1353 -8.81678 0
      vertex -13.7032 -6.10105 0
    endloop
  endfacet
  facet normal 0 0 -1
    outer loop
      vertex -15 0 0
      vertex -13.7032 -6.10105 0
      vertex -14.6722 -3.11867 0
    endloop
  endfacet
  facet normal 0.994522 0.104528 0
    outer loop
      vertex 14.6722 3.11867 0
      vertex 14.6722 3.11867 1
      vertex 15 0 1
    endloop
  endfacet
  facet normal 0.994522 0.104528 0
    outer loop
      vertex 15 0 0
      vertex 14.6722 3.11867 0
      vertex 15 0 1
    endloop
  endfacet
  facet normal 0.951057 0.309017 0
    outer loop
      vertex 13.7032 6.10105 0
      vertex 13.7032 6.10105 1
      vertex 14.6722 3.11867 1
    endloop
  endfacet
  facet normal 0.951057 0.309017 0
    outer loop
      vertex 14.6722 3.11867 0
      vertex 13.7032 6.10105 0
      vertex 14.6722 3.11867 1
    endloop
  endfacet
  facet normal -0.994522 0.104528 0
    outer loop
      vertex -15 0 1
      vertex -14.6722 3.11867 1
      vertex -15 0 0
    endloop
  endfacet
  facet normal -0.994522 0.104528 0
    outer loop
      vertex -15 0 0
      vertex -14.6722 3.11867 1
      vertex -14.6722 3.11867 0
    endloop
  endfacet
  facet normal -0.994522 -0.104528 -0
    outer loop
      vertex -14.6722 -3.11867 0
      vertex -14.6722 -3.11867 1
      vertex -15 0 0
    endloop
  endfacet
  facet normal -0.994522 -0.104528 -0
    outer loop
      vertex -15 0 0
      vertex -14.6722 -3.11867 1
      vertex -15 0 1
    endloop
  endfacet
  facet normal -0.951057 -0.309017 -0
    outer loop
      vertex -13.7032 -6.10105 0
      vertex -13.7032 -6.10105 1
      vertex -14.6722 -3.11867 0
    endloop
  endfacet
  facet normal -0.951057 -0.309017 -0
    outer loop
      vertex -14.6722 -3.11867 0
      vertex -13.7032 -6.10105 1
      vertex -14.6722 -3.11867 1
    endloop
  endfacet
  facet normal -0.866025 -0.5 -0
    outer loop
      vertex -12.1353 -8.81678 0
      vertex -12.1353 -8.81678 1
      vertex -13.7032 -6.10105 0
    endloop
  endfacet
  facet normal -0.866025 -0.5 -0
    outer loop
      vertex -13.7032 -6.10105 0
      vertex -12.1353 -8.81678 1
      vertex -13.7032 -6.10105 1
    endloop
  endfacet
  facet normal -0.743145 -0.669131 -0
    outer loop
      vertex -10.037 -11.1472 0
      vertex -10.037 -11.1472 1
      vertex -12.1353 -8.81678 0
    endloop
  endfacet
  facet normal -0.743145 -0.669131 -0
    outer loop
      vertex -12.1353 -8.81678 0
      vertex -10.037 -11.1472 1
      vertex -12.1353 -8.81678 1
    endloop
  endfacet
  facet normal -0.587785 -0.809017 0
    outer loop
      vertex -10.037 -11.1472 0
      vertex -7.5 -12.9904 0
      vertex -7.5 -12.9904 1
    endloop
  endfacet
  facet normal -0.587785 -0.809017 0
    outer loop
      vertex -10.037 -11.1472 1
      vertex -10.037 -11.1472 0
      vertex -7.5 -12.9904 1
    endloop
  endfacet
  facet normal -0.406737 -0.913545 0
    outer loop
      vertex -7.5 -12.9904 0
      vertex -4.63525 -14.2658 0
      vertex -4.63525 -14.2658 1
    endloop
  endfacet
  facet normal -0.406737 -0.913545 0
    outer loop
      vertex -7.5 -12.9904 1
      vertex -7.5 -12.9904 0
      vertex -4.63525 -14.2658 1
    endloop
  endfacet
  facet normal -0.207911 -0.978148 0
    outer loop
      vertex -4.63525 -14.2658 0
      vertex -1.56793 -14.9178 0
      vertex -1.56793 -14.9178 1
    endloop
  endfacet
  facet normal -0.207911 -0.978148 0
    outer loop
      vertex -4.63525 -14.2658 1
      vertex -4.63525 -14.2658 0
      vertex -1.56793 -14.9178 1
    endloop
  endfacet
  facet normal -0 -1 0
    outer loop
      vertex -1.56793 -14.9178 0
      vertex 1.56793 -14.9178 0
      vertex 1.56793 -14.9178 1
    endloop
  endfacet
  facet normal 0 -1 0
    outer loop
      vertex -1.56793 -14.9178 1
      vertex -1.56793 -14.9178 0
      vertex 1.56793 -14.9178 1
    endloop
  endfacet
  facet normal 0.207911 -0.978148 0
    outer loop
      vertex 1.56793 -14.9178 0
      vertex 4.63525 -14.2658 0
      vertex 4.63525 -14.2658 1
    endloop
  endfacet
  facet normal 0.207911 -0.978148 0
    outer loop
      vertex 1.56793 -14.9178 1
      vertex 1.56793 -14.9178 0
      vertex 4.63525 -14.2658 1
    endloop
  endfacet
  facet normal 0.406737 -0.913545 0
    outer loop
      vertex 4.63525 -14.2658 0
      vertex 7.5 -12.9904 0
      vertex 7.5 -12.9904 1
    endloop
  endfacet
  facet normal 0.406737 -0.913545 0
    outer loop
      vertex 4.63525 -14.2658 1
      vertex 4.63525 -14.2658 0
      vertex 7.5 -12.9904 1
    endloop
  endfacet
  facet normal 0.587785 -0.809017 0
    outer loop
      vertex 7.5 -12.9904 0
      vertex 10.037 -11.1472 0
      vertex 10.037 -11.1472 1
    endloop
  endfacet
  facet normal 0.587785 -0.809017 0
    outer loop
      vertex 7.5 -12.9904 1
      vertex 7.5 -12.9904 0
      vertex 10.037 -11.1472 1
    endloop
  endfacet
  facet normal 0.743145 -0.669131 0
    outer loop
      vertex 10.037 -11.1472 0
      vertex 12.1353 -8.81678 0
      vertex 12.1353 -8.81678 1
    endloop
  endfacet
  facet normal 0.743145 -0.669131 0
    outer loop
      vertex 10.037 -11.1472 1
      vertex 10.037 -11.1472 0
      vertex 12.1353 -8.81678 1
    endloop
  endfacet
  facet normal 0.866025 -0.5 0
    outer loop
      vertex 12.1353 -8.81678 0
      vertex 13.7032 -6.10105 0
      vertex 13.7032 -6.10105 1
    endloop
  endfacet
  facet normal 0.866025 -0.5 0
    outer loop
      vertex 12.1353 -8.81678 1
      vertex 12.1353 -8.81678 0
      vertex 13.7032 -6.10105 1
    endloop
  endfacet
  facet normal 0.951057 -0.309017 0
    outer loop
      vertex 13.7032 -6.10105 0
      vertex 14.6722 -3.11867 0
      vertex 14.6722 -3.11867 1
    endloop
  endfacet
  facet normal 0.951057 -0.309017 0
    outer loop
      vertex 13.7032 -6.10105 1
      vertex 13.7032 -6.10105 0
      vertex 14.6722 -3.11867 1
    endloop
  endfacet
  facet normal 0.994522 -0.104528 0
    outer loop
      vertex 14.6722 -3.11867 0
      vertex 15 0 0
      vertex 15 0 1
    endloop
  endfacet
  facet normal 0.994522 -0.104528 0
    outer loop
      vertex 14.6722 -3.11867 1
      vertex 14.6722 -3.11867 0
      vertex 15 0 1
    endloop
  endfacet
  facet normal 0.866025 0.5 0
    outer loop
      vertex 12.1353 8.81678 0
      vertex 12.1353 8.81678 1
      vertex 13.7032 6.10105 1
    endloop
  endfacet
  facet normal 0.866025 0.5 0
    outer loop
      vertex 13.7032 6.10105 0
      vertex 12.1353 8.81678 0
      vertex 13.7032 6.10105 1
    endloop
  endfacet
  facet normal 0.743145 0.669131 0
    outer loop
      vertex 10.037 11.1472 0
      vertex 10.037 11.1472 1
      vertex 12.1353 8.81678 1
    endloop
  endfacet
  facet normal 0.743145 0.669131 0
    outer loop
      vertex 12.1353 8.81678 0
      vertex 10.037 11.1472 0
      vertex 12.1353 8.81678 1
    endloop
  endfacet
  facet normal 0.587785 0.809017 -0
    outer loop
      vertex 7.5 12.9904 1
      vertex 10.037 11.1472 1
      vertex 7.5 12.9904 0
    endloop
  endfacet
  facet normal 0.587785 0.809017 0
    outer loop
      vertex 7.5 12.9904 0
      vertex 10.037 11.1472 1
      vertex 10.037 11.1472 0
    endloop
  endfacet
  facet normal 0.406737 0.913545 -0
    outer loop
      vertex 4.63525 14.2658 1
      vertex 7.5 12.9904 1
      vertex 4.63525 14.2658 0
    endloop
  endfacet
  facet normal 0.406737 0.913545 0
    outer loop
      vertex 4.63525 14.2658 0
      vertex 7.5 12.9904 1
      vertex 7.5 12.9904 0
    endloop
  endfacet
  facet normal 0.207911 0.978148 -0
    outer loop
      vertex 1.56793 14.9178 1
      vertex 4.63525 14.2658 1
      vertex 1.56793 14.9178 0
    endloop
  endfacet
  facet normal 0.207911 0.978148 0
    outer loop
      vertex 1.56793 14.9178 0
      vertex 4.63525 14.2658 1
      vertex 4.63525 14.2658 0
    endloop
  endfacet
  facet normal 0 1 -0
    outer loop
      vertex -1.56793 14.9178 1
      vertex 1.56793 14.9178 1
      vertex -1.56793 14.9178 0
    endloop
  endfacet
  facet normal 0 1 0
    outer loop
      vertex -1.56793 14.9178 0
      vertex 1.56793 14.9178 1
      vertex 1.56793 14.9178 0
    endloop
  endfacet
  facet normal -0.207911 0.978148 0
    outer loop
      vertex -4.63525 14.2658 1
      vertex -1.56793 14.9178 1
      vertex -4.63525 14.2658 0
    endloop
  endfacet
  facet normal -0.207911 0.978148 0
    outer loop
      vertex -4.63525 14.2658 0
      vertex -1.56793 14.9178 1
      vertex -1.56793 14.9178 0
    endloop
  endfacet
  facet normal -0.406737 0.913545 0
    outer loop
      vertex -7.5 12.9904 1
      vertex -4.63525 14.2658 1
      vertex -7.5 12.9904 0
    endloop
  endfacet
  facet normal -0.406737 0.913545 0
    outer loop
      vertex -7.5 12.9904 0
      vertex -4.63525 14.2658 1
      vertex -4.63525 14.2658 0
    endloop
  endfacet
  facet normal -0.587785 0.809017 0
    outer loop
      vertex -10.037 11.1472 1
      vertex -7.5 12.9904 1
      vertex -10.037 11.1472 0
    endloop
  endfacet
  facet normal -0.587785 0.809017 0
    outer loop
      vertex -10.037 11.1472 0
      vertex -7.5 12.9904 1
      vertex -7.5 12.9904 0
    endloop
  endfacet
  facet normal -0.743145 0.669131 0
    outer loop
      vertex -12.1353 8.81678 1
      vertex -10.037 11.1472 1
      vertex -12.1353 8.81678 0
    endloop
  endfacet
  facet normal -0.743145 0.669131 0
    outer loop
      vertex -12.1353 8.81678 0
      vertex -10.037 11.1472 1
      vertex -10.037 11.1472 0
    endloop
  endfacet
  facet normal -0.866025 0.5 0
    outer loop
      vertex -13.7032 6.10105 1
      vertex -12.1353 8.81678 1
      vertex -13.7032 6.10105 0
    endloop
  endfacet
  facet normal -0.866025 0.5 0
    outer loop
      vertex -13.7032 6.10105 0
      vertex -12.1353 8.81678 1
      vertex -12.1353 8.81678 0
    endloop
  endfacet
  facet normal -0.951057 0.309017 0
    outer loop
      vertex -14.6722 3.11867 1
      vertex -13.7032 6.10105 1
      vertex -14.6722 3.11867 0
    endloop
  endfacet
  facet normal -0.951057 0.309017 0
    outer loop
      vertex -14.6722 3.11867 0
      vertex -13.7032 6.10105 1
      vertex -13.7032 6.10105 0
    endloop
  endfacet
  facet normal 0 0 1
    outer loop
      vertex -15 0 1
      vertex -14.6722 -3.11867 1
      vertex -13.7032 -6.10105 1
    endloop
  endfacet
  facet normal 0 0 1
    outer loop
      vertex -10.037 -11.1472 1
      vertex -15 0 1
      vertex -12.1353 -8.81678 1
    endloop
  endfacet
  facet normal 0 0 1
    outer loop
      vertex -12.1353 -8.81678 1
      vertex -15 0 1
      vertex -13.7032 -6.10105 1
    endloop
  endfacet
  facet normal 0 0 1
    outer loop
      vertex -7.5 -12.9904 1
      vertex -15 0 1
      vertex -10.037 -11.1472 1
    endloop
  endfacet
  facet normal 0 0 1
    outer loop
      vertex -4.63525 -14.2658 1
      vertex -15 0 1
      vertex -7.5 -12.9904 1
    endloop
  endfacet
  facet normal 0 0 1
    outer loop
      vertex -1.56793 -14.9178 1
      vertex -15 0 1
      vertex -4.63525 -14.2658 1
    endloop
  endfacet
  facet normal -0 0 1
    outer loop
      vertex 1.56793 -14.9178 1
      vertex -15 0 1
      vertex -1.56793 -14.9178 1
    endloop
  endfacet
  facet normal -0 0 1
    outer loop
      vertex 4.63525 -14.2658 1
      vertex -15 0 1
      vertex 1.56793 -14.9178 1
    endloop
  endfacet
  facet normal -0 0 1
    outer loop
      vertex 7.5 -12.9904 1
      vertex -15 0 1
      vertex 4.63525 -14.2658 1
    endloop
  endfacet
  facet normal -0 0 1
    outer loop
      vertex 10.037 -11.1472 1
      vertex -15 0 1
      vertex 7.5 -12.9904 1
    endloop
  endfacet
  facet normal -0 0 1
    outer loop
      vertex 12.1353 -8.81678 1
      vertex -15 0 1
      vertex 10.037 -11.1472 1
    endloop
  endfacet
  facet normal -0 0 1
    outer loop
      vertex 13.7032 -6.10105 1
      vertex -15 0 1
      vertex 12.1353 -8.81678 1
    endloop
  endfacet
  facet normal -0 0 1
    outer loop
      vertex 14.6722 -3.11867 1
      vertex -15 0 1
      vertex 13.7032 -6.10105 1
    endloop
  endfacet
  facet normal 0 0 1
    outer loop
      vertex 15 0 1
      vertex -15 0 1
      vertex 14.6722 -3.11867 1
    endloop
  endfacet
  facet normal 0 -0 1
    outer loop
      vertex 14.6722 3.11867 1
      vertex -15 0 1
      vertex 15 0 1
    endloop
  endfacet
  facet normal 0 -0 1
    outer loop
      vertex 13.7032 6.10105 1
      vertex -15 0 1
      vertex 14.6722 3.11867 1
    endloop
  endfacet
  facet normal 0 -0 1
    outer loop
      vertex 12.1353 8.81678 1
      vertex -15 0 1
      vertex 13.7032 6.10105 1
    endloop
  endfacet
  facet normal 0 -0 1
    outer loop
      vertex 10.037 11.1472 1
      vertex -15 0 1
      vertex 12.1353 8.81678 1
    endloop
  endfacet
  facet normal 0 -0 1
    outer loop
      vertex 7.5 12.9904 1
      vertex -15 0 1
      vertex 10.037 11.1472 1
    endloop
  endfacet
  facet normal 0 -0 1
    outer loop
      vertex 4.63525 14.2658 1
      vertex -15 0 1
      vertex 7.5 12.9904 1
    endloop
  endfacet
  facet normal 0 -0 1
    outer loop
      vertex 1.56793 14.9178 1
      vertex -15 0 1
      vertex 4.63525 14.2658 1
    endloop
  endfacet
  facet normal 0 -0 1
    outer loop
      vertex -1.56793 14.9178 1
      vertex -15 0 1
      vertex 1.56793 14.9178 1
    endloop
  endfacet
  facet normal 0 -0 1
    outer loop
      vertex -4.63525 14.2658 1
      vertex -15 0 1
      vertex -1.56793 14.9178 1
    endloop
  endfacet
  facet normal 0 -0 1
    outer loop
      vertex -7.5 12.9904 1
      vertex -15 0 1
      vertex -4.63525 14.2658 1
    endloop
  endfacet
  facet normal 0 -0 1
    outer loop
      vertex -10.037 11.1472 1
      vertex -15 0 1
      vertex -7.5 12.9904 1
    endloop
  endfacet
  facet normal 0 -0 1
    outer loop
      vertex -12.1353 8.81678 1
      vertex -15 0 1
      vertex -10.037 11.1472 1
    endloop
  endfacet
  facet normal 0 -0 1
    outer loop
      vertex -13.7032 6.10105 1
      vertex -15 0 1
      vertex -12.1353 8.81678 1
    endloop
  endfacet
  facet normal 0 -0 1
    outer loop
      vertex -14.6722 3.11867 1
      vertex -15 0 1
      vertex -13.7032 6.10105 1
    endloop
  endfacet
endsolid OpenSCAD_Model
